<?xml version="1.0" encoding="utf-8"?>
<!-- Generator: Adobe Illustrator 25.0.0, SVG Export Plug-In . SVG Version: 6.00 Build 0)  -->
<svg version="1.1" id="Layer_5" xmlns="http://www.w3.org/2000/svg" xmlns:xlink="http://www.w3.org/1999/xlink" x="0px" y="0px"
	 viewBox="0 0 80 80" style="enable-background:new 0 0 80 80;" xml:space="preserve">
<g>
	<path d="M51.2,11.9l6.9-4l-4-6.9L34.5,12.3l11.3,19.5l6.9-4l-5-8.7c8.5,3.1,14.5,11.3,14.5,20.9c0,12.3-10,22.3-22.3,22.3
		S17.8,52.3,17.8,40c0-5.9,2.3-11.5,6.5-15.7l-5.7-5.7C12.9,24.3,9.8,31.9,9.8,40c0,16.7,13.6,30.3,30.3,30.3S70.3,56.7,70.3,40
		C70.3,27.3,62.3,16.4,51.2,11.9z"/>
</g>
</svg>
