<?xml version="1.0" encoding="utf-8"?>
<!-- Generator: Adobe Illustrator 25.0.0, SVG Export Plug-In . SVG Version: 6.00 Build 0)  -->
<svg version="1.1" id="Layer_1" xmlns="http://www.w3.org/2000/svg" xmlns:xlink="http://www.w3.org/1999/xlink" x="0px" y="0px"
	 viewBox="0 0 120 48" enable-background="new 0 0 120 48" xml:space="preserve">
<path fill-rule="evenodd" clip-rule="evenodd" fill="#FFFFFF" d="M39.5,15.3c0,1-0.8,1.8-1.8,1.8c-1,0-1.8-0.8-1.8-1.8
	s0.8-1.8,1.8-1.8C38.7,13.5,39.5,14.3,39.5,15.3z M85,24.9h-7.4c0.5,2.4,3.5,2.2,4.9,0.8l1.8,1.8c-1.2,1.5-2.2,1.9-4.7,1.9
	c-7.2-0.1-7.4-10.9-0.1-10.9C83.1,18.5,85,21.4,85,24.9z M81.6,23h-4.1C77.5,20.6,81.6,20.1,81.6,23z M39.5,18.7v10.8H36V18.7H39.5z
	 M91.4,18.7c1.5,0,2.8,0.6,3.8,1.6l-2.1,2.1c-0.4-0.4-1.1-0.7-1.7-0.7c-1.4,0-2.5,1.1-2.5,2.5c0,1.4,1.1,2.5,2.5,2.5
	c0.7,0,1.3-0.3,1.7-0.7l2.1,2.1c-1,1-2.3,1.6-3.8,1.6c-3,0-5.4-2.4-5.4-5.4S88.4,18.7,91.4,18.7z M106,29.3v-6.8
	c0-5.1-6.4-4.1-9.4-2.6l0.9,2.3c1.4-0.7,5.1-1.8,5.1,0.9c-0.2,0-0.5,0-0.7,0c-2.5,0-6-0.1-6,3.2c-0.1,3.5,4.8,4.3,6.7,1.9v1.2H106z
	 M99.1,26c0,2.3,3.5,0.9,3.5-1.1c-0.2,0-0.3,0-0.5,0C100.8,24.9,99.1,24.8,99.1,26z M72.9,29.5v-6.8c0-4.5-6.1-5.6-7.6-1.7
	c-1.1-3.1-5.6-3.2-7.1-0.5v-1.8h-3.5v10.8h3.5V24c0-3,3.8-3.2,3.8-0.5v6h3.5V24c0-3,3.8-3.2,3.8-0.5v6H72.9z M52.6,29.5v-6.8
	c0-4.5-5.5-5.5-7.5-2.2v-1.7h-3.5v10.8h3.5v-5.8c0-2.6,4-3.1,4-0.1v5.9H52.6z M29.3,29.5c3,0,5.4-2.4,5.4-5.4c0-3-2.4-5.4-5.4-5.4
	c-3,0-5.4,2.4-5.4,5.4C23.9,27.1,26.3,29.5,29.3,29.5z M29.3,26.6c1.4,0,2.5-1.1,2.5-2.5c0-1.4-1.1-2.5-2.5-2.5
	c-1.4,0-2.5,1.1-2.5,2.5C26.8,25.5,27.9,26.6,29.3,26.6z M19.4,18.7c1.5,0,2.8,0.6,3.8,1.6l-2.1,2.1c-0.4-0.4-1.1-0.7-1.7-0.7
	c-1.4,0-2.5,1.1-2.5,2.5c0,1.4,1.1,2.5,2.5,2.5c0.7,0,1.3-0.3,1.7-0.7l2.1,2.1c-1,1-2.3,1.6-3.8,1.6c-3,0-5.4-2.4-5.4-5.4
	S16.4,18.7,19.4,18.7z"/>
</svg>
